# xmcd
#
# Track frame offsets:
#	150
#	18192
#	34187
#	52322
#	70885
#	92627
#	112577
#	131100
#	148820
#	167017
#	186022
#	205335
#	222307
#	242267
#	263465
#	281032
#	302330
#	323805
#
# Disc length: 4569 seconds
#
# Revision: 7
# Processed by: cddbd v1.5.2PL0 Copyright (c) Steve Scherf et al.
# Submitted via: audiograbber 1.83.01
#
DISCID=fd11d712
DTITLE=Pointer Sisters - Fire - The Very Best Of  [CD2)
DYEAR=1996
DGENRE=Retro
TTITLE0=June Pointer_I'm Ready For Love 
TTITLE1=Heart To Heart
TTITLE2=American Music
TTITLE3=See How The Love Goes
TTITLE4=Automatic
TTITLE5=Jump (For My Love)
TTITLE6=I Need You
TTITLE7=I'm So Excited
TTITLE8=Telegraph Your Love
TTITLE9=Baby Come And Get It
TTITLE10=Neutron Dance
TTITLE11=Dare Me
TTITLE12=Freedom
TTITLE13=Back In My Arms
TTITLE14=Goldmine
TTITLE15=All I Know Is The Way I Feel
TTITLE16=Anita Pointer_Overnight Success
TTITLE17=He Turned Me Out
EXTD=
EXTT0=
EXTT1=
EXTT2=
EXTT3=
EXTT4=
EXTT5=
EXTT6=
EXTT7=
EXTT8=
EXTT9=
EXTT10=
EXTT11=
EXTT12=
EXTT13=
EXTT14=
EXTT15=
EXTT16=
EXTT17=
PLAYORDER=
